<svg xmlns="http://www.w3.org/2000/svg" width="16" height="16" viewBox="0 0 16 16">
    <path fill="#6A7785" fill-rule="evenodd" d="M11.722 7.5h2.366c.562 0 1.025.43 1.074.98l.005.099v2.365c0 .25-.087.492-.244.684l-.072.08-3.763 3.762a1.079 1.079 0 0 1-1.447.072l-.08-.072-2.365-2.365a1.08 1.08 0 0 1-.07-1.449l.07-.077 3.763-3.763c.177-.177.41-.286.656-.31l.107-.006h2.366-2.366zm2.366 1h-2.366a.078.078 0 0 0-.039.01l-.016.013-3.764 3.763a.079.079 0 0 0-.017.086l.017.026 2.366 2.365a.079.079 0 0 0 .095.013l.016-.013L14.144 11a.079.079 0 0 0 .02-.035l.003-.02V8.578a.079.079 0 0 0-.054-.075l-.025-.004zM1.5 0h3a1.5 1.5 0 0 1 1.497 1.397L6 1.5V2h6.5a1.5 1.5 0 0 1 1.497 1.397L14 3.5V5h.5a1.5 1.5 0 0 1 1.45 1.886.5.5 0 0 1-.98-.19l.028-.143a.5.5 0 0 0-.421-.547L14.5 6H5.252a.5.5 0 0 0-.455.292l-.025.07-1.567 5.432c-.02.071-.044.14-.073.206H5.5a.5.5 0 0 1 .068.995L5.5 13H1.631a.5.5 0 0 1-.15-.023l-.06-.007a1.634 1.634 0 0 1-1.416-1.493L0 11.367V1.5A1.5 1.5 0 0 1 1.397.003L1.5 0h3-3zm3 1h-3a.5.5 0 0 0-.495.432L1 1.5v9.86a.633.633 0 0 0 1.218.234l.026-.074L3.81 6.084a1.5 1.5 0 0 1 1.325-1.08L5.253 5H13V3.5a.5.5 0 0 0-.432-.495L12.5 3h-7a.5.5 0 0 1-.495-.432L5 2.5v-1a.5.5 0 0 0-.432-.495L4.5 1zm8.334 8.092a.645.645 0 1 1-.085.006l.085-.006z"/>
</svg>
