<svg xmlns="http://www.w3.org/2000/svg" width="16" height="17" viewBox="0 0 16 17">
    <path fill="#414A54" fill-rule="evenodd" d="M5.01 7.51l.175.005a.5.5 0 1 1-.057.998 2.481 2.481 0 0 0-1.786.618l-.11.103-1.5 1.5a2.5 2.5 0 0 0 3.428 3.637l.108-.101 1.5-1.5c.5-.5.761-1.19.72-1.896a.5.5 0 1 1 1-.057 3.481 3.481 0 0 1-.893 2.533l-.12.127-1.5 1.5a3.5 3.5 0 0 1-5.062-4.832l.112-.118 1.5-1.5a3.481 3.481 0 0 1 2.486-1.018zm-.864 3.636l7-7a.5.5 0 0 1 .756.65l-.048.057-7 7a.5.5 0 0 1-.756-.651l.048-.056 7-7-7 7zm4.38-8.625l1.5-1.5a3.5 3.5 0 0 1 5.061 4.832l-.112.118-1.5 1.5a3.482 3.482 0 0 1-2.66 1.012.5.5 0 1 1 .057-.998 2.482 2.482 0 0 0 1.786-.618l.11-.103 1.5-1.5a2.5 2.5 0 0 0-3.428-3.637l-.108.101-1.499 1.5a2.483 2.483 0 0 0-.719 1.896.5.5 0 0 1-.998.058 3.484 3.484 0 0 1 .889-2.534l.12-.127 1.5-1.5-1.5 1.5z"/>
</svg>
