<svg xmlns="http://www.w3.org/2000/svg" width="16" height="16" viewBox="0 0 16 16">
    <path fill="#414A54" fill-rule="evenodd" d="M14.5 0A1.5 1.5 0 0 1 16 1.5v13a1.5 1.5 0 0 1-1.5 1.5h-13A1.5 1.5 0 0 1 0 14.5v-13A1.5 1.5 0 0 1 1.5 0h13zm.5 12H1v2.5a.5.5 0 0 0 .5.5h13a.5.5 0 0 0 .5-.5V12zm-.5-11h-13a.5.5 0 0 0-.5.5V11h2.25l2.158-2.877a1.5 1.5 0 0 1 .976-.584l.118-.013a1.5 1.5 0 0 1 1.08.356l.087.08.277.277L9.8 5.767a1.5 1.5 0 0 1 2.326-.091l.074.09 1.78 2.374a.5.5 0 0 1-.751.656l-.049-.056-1.78-2.373a.5.5 0 0 0-.756-.051l-.044.05L8.4 9.3a.5.5 0 0 1-.697.102l-.057-.048-.684-.685a.5.5 0 0 0-.707 0l-.047.054L4.499 11H15V1.5a.5.5 0 0 0-.5-.5zM4.25 2.5a1.75 1.75 0 1 1 0 3.5 1.75 1.75 0 0 1 0-3.5zm0 1a.75.75 0 1 0 0 1.5.75.75 0 0 0 0-1.5z"/>
</svg>
