<svg xmlns="http://www.w3.org/2000/svg" width="16" height="17" viewBox="0 0 16 17">
    <path fill="#414A54" fill-rule="evenodd" d="M2.598 2.703l.048-.057a.5.5 0 0 1 .651-.048l.057.048L8 7.293l4.646-4.647a.5.5 0 0 1 .651-.048l.057.048a.5.5 0 0 1 .048.651l-.048.057L8.707 8l4.647 4.646a.5.5 0 0 1 .048.651l-.048.057a.5.5 0 0 1-.651.048l-.057-.048L8 8.707l-4.646 4.647a.5.5 0 0 1-.651.048l-.057-.048a.5.5 0 0 1-.048-.651l.048-.057L7.293 8 2.646 3.354a.5.5 0 0 1-.048-.651l.048-.057-.048.057z"/>
</svg>
