<svg xmlns="http://www.w3.org/2000/svg" width="16" height="16" viewBox="0 0 16 16">
    <path fill="#4266CB" fill-rule="evenodd" d="M11.294 5.997l.107.004a1.386 1.386 0 0 1 1.22.987l.295.97c.025.081.109.13.19.111l.985-.229a1.393 1.393 0 0 1 1.326 2.307l-.687.742a.167.167 0 0 0 0 .227l.688.742a1.393 1.393 0 0 1-1.33 2.302l-.982-.227a.162.162 0 0 0-.192.111l-.293.967a1.387 1.387 0 0 1-2.656.001l-.295-.969a.162.162 0 0 0-.191-.111l-.983.227a1.392 1.392 0 0 1-1.33-2.305l.688-.741a.167.167 0 0 0 0-.228l-.687-.74a1.393 1.393 0 0 1 1.329-2.307l.977.227c.085.02.17-.03.195-.111l.294-.966A1.387 1.387 0 0 1 11.186 6l.108-.004zm-.002 1l-.063.005a.389.389 0 0 0-.31.274l-.295.97c-.179.582-.775.928-1.373.794l-.978-.227a.393.393 0 0 0-.373.652l.686.74a1.166 1.166 0 0 1 0 1.588l-.687.742a.392.392 0 0 0 .373.65l.982-.228a1.162 1.162 0 0 1 1.373.796l.295.97a.387.387 0 0 0 .742-.001l.293-.967a1.161 1.161 0 0 1 1.374-.797l.978.227a.393.393 0 0 0 .375-.648l-.686-.74a1.166 1.166 0 0 1 0-1.589l.687-.741a.393.393 0 0 0-.37-.652l-.984.228a1.163 1.163 0 0 1-1.372-.795l-.296-.973a.387.387 0 0 0-.308-.273l-.063-.005zM8.707 0h3.586a1.5 1.5 0 0 1 1.496 1.398l.004.102v3.586a.5.5 0 0 1-.996.068l-.004-.068V1.5a.5.5 0 0 0-.432-.495l-.068-.005H8.707a.5.5 0 0 0-.293.095l-.06.052-7 7a.5.5 0 0 0-.052.647l.052.06 3.586 3.585a.5.5 0 0 1-.651.756l-.057-.048L.647 9.56a1.5 1.5 0 0 1-.09-2.024l.09-.098 7-7a1.5 1.5 0 0 1 .928-.433L8.707 0h3.586-3.586zm2.586 9.5a1.5 1.5 0 1 1 0 3 1.5 1.5 0 0 1 0-3zm0 1a.5.5 0 1 0 0 1 .5.5 0 0 0 0-1zm-.5-8.249a.75.75 0 0 1 .745.668l.005.082-.005.082a.75.75 0 1 1-.745-.832z"/>
</svg>
