<svg xmlns="http://www.w3.org/2000/svg" width="16" height="16" viewBox="0 0 16 16">
    <path fill="#414A54" fill-rule="evenodd" d="M11 15.379H5a.5.5 0 0 1-.068-.996L5 14.38h2.5V.979h-5c-.236 0-.462.078-.641.219l-.074.063a.917.917 0 0 0-.28.567L1.5 1.92v.479a.5.5 0 0 1-.995.068L.5 2.399V1.92c0-.519.213-1.015.592-1.38.341-.327.79-.523 1.265-.556L2.5-.021h11c.526 0 1.033.201 1.408.561.347.334.556.78.588 1.25l.004.13v.48a.5.5 0 0 1-.995.068L14.5 2.4v-.48a.911.911 0 0 0-.285-.659A1.027 1.027 0 0 0 13.6.983L13.5.98h-5v13.4H11a.5.5 0 0 1 .495.432l.005.068a.5.5 0 0 1-.432.495L11 15.38H5h6z"/>
</svg>
