<svg xmlns="http://www.w3.org/2000/svg" width="16" height="16" viewBox="0 0 16 16">
    <path fill="#414A54" fill-rule="evenodd" d="M12.5 7.05a3.5 3.5 0 0 1 3.5 3.5c0 1.115-.969 2.777-2.39 4.647l-.322.419a1 1 0 0 1-1.576 0C10.12 13.581 9 11.748 9 10.549a3.5 3.5 0 0 1 3.5-3.5zm0 1a2.5 2.5 0 0 0-2.5 2.5c0 .807.937 2.396 2.211 4.076L12.5 15l.29-.375.267-.359C14.194 12.72 15 11.3 15 10.549a2.5 2.5 0 0 0-2.5-2.5zM10.351.006L10.51 0c.14 0 .278.021.414.06l.133.047 4 1.6a1.5 1.5 0 0 1 .939 1.279L16 3.1V6a.5.5 0 0 1-.995.068L15 6V3.1a.5.5 0 0 0-.254-.435l-.06-.03L11 1.161V5.5a.5.5 0 0 1-.432.495L10.5 6a.5.5 0 0 1-.495-.432L10 5.5V1.16l-4 1.6v9.924l1.606-.642a.5.5 0 0 1 .62.217l.03.061a.5.5 0 0 1-.217.62l-.061.03-1.921.769a1.5 1.5 0 0 1-.537.107h-.04a1.486 1.486 0 0 1-.406-.062l-.131-.045-4-1.6a1.5 1.5 0 0 1-.939-1.279L0 10.746v-9.58A1 1 0 0 1 1.267.198l.105.035L5.314 1.81a.5.5 0 0 0 .299.023l.073-.023L9.943.107a1.5 1.5 0 0 1 .408-.1zM1 1.161v9.585a.5.5 0 0 0 .254.435l.06.03L5 12.683V2.758l-.057-.02L1 1.162zM12.5 9.8l.082.005a.75.75 0 0 1 .664.664l.004.081a.75.75 0 0 1-.668.746h-.026l-.056.005a.75.75 0 0 1-.746-.668l-.004-.082v-.025a.75.75 0 0 1 .67-.722l.08-.004z"/>
</svg>
