<svg xmlns="http://www.w3.org/2000/svg" width="16" height="16" viewBox="0 0 16 16">
    <path fill="#414A54" fill-rule="evenodd" d="M7.005 0a2.5 2.5 0 0 1 1.767.732l7.04 7.04a1.5 1.5 0 0 1 0 2.122l-5.918 5.92a1.5 1.5 0 0 1-2.122 0L.732 8.772A2.5 2.5 0 0 1 0 7.005V1.5A1.5 1.5 0 0 1 1.5 0h5.505zm0 1H1.5a.5.5 0 0 0-.5.5v5.505c0 .397.158.779.439 1.06l7.04 7.041a.5.5 0 0 0 .707 0l5.92-5.92a.5.5 0 0 0 0-.706l-7.04-7.041A1.5 1.5 0 0 0 7.004 1zM4 2.5a1.5 1.5 0 1 1 0 3 1.5 1.5 0 0 1 0-3zm0 1a.5.5 0 1 0 0 1 .5.5 0 0 0 0-1z"/>
</svg>
