<svg xmlns="http://www.w3.org/2000/svg" width="16" height="16" viewBox="0 0 16 16">
    <path fill="#414A54" fill-rule="evenodd" d="M15.5 5.5a.5.5 0 0 1 .495.432L16 6v8.5a1.5 1.5 0 0 1-1.397 1.497L14.5 16h-13a1.5 1.5 0 0 1-1.497-1.397L0 14.5V6a.5.5 0 0 1 .995-.068L1 6v8.5a.5.5 0 0 0 .432.495L1.5 15h13a.5.5 0 0 0 .495-.432L15 14.5V6a.5.5 0 0 1 .5-.5zM6.548 7.113l3.86 1.93a1.07 1.07 0 0 1 0 1.914l-3.86 1.93A1.07 1.07 0 0 1 5 11.93V8.071a1.07 1.07 0 0 1 1.548-.958zM6.08 8A.07.07 0 0 0 6 8.07v3.858a.07.07 0 0 0 .102.064l3.86-1.93a.07.07 0 0 0-.001-.126l-3.86-1.93-.022-.006zM14.5 0A1.5 1.5 0 0 1 16 1.5V4a.5.5 0 0 1-.5.5H.5A.5.5 0 0 1 0 4V1.5A1.5 1.5 0 0 1 1.5 0h13zM5.337 1H1.5a.5.5 0 0 0-.5.5v2h3.622L5.337 1zm5 0h-3.96l-.714 2.5h3.959l.715-2.5zM14.5 1h-3.123l-.714 2.5H15v-2a.5.5 0 0 0-.5-.5z"/>
</svg>
